<svg width="130" height="22" viewBox="0 0 130 22" fill="none" xmlns="http://www.w3.org/2000/svg">
<path d="M53.8375 9.5775C53.8375 10.3725 53.705 11.1025 53.44 11.7675C53.175 12.4325 52.8025 13.005 52.3225 13.485C51.8425 13.965 51.265 14.3375 50.59 14.6025C49.915 14.8675 49.165 15 48.34 15H44.2075V4.155H48.34C49.165 4.155 49.915 4.29 50.59 4.56C51.265 4.825 51.8425 5.1975 52.3225 5.6775C52.8025 6.1525 53.175 6.7225 53.44 7.3875C53.705 8.0525 53.8375 8.7825 53.8375 9.5775ZM51.7675 9.5775C51.7675 8.9825 51.6875 8.45 51.5275 7.98C51.3725 7.505 51.145 7.105 50.845 6.78C50.55 6.45 50.19 6.1975 49.765 6.0225C49.345 5.8475 48.87 5.76 48.34 5.76H46.2325V13.395H48.34C48.87 13.395 49.345 13.3075 49.765 13.1325C50.19 12.9575 50.55 12.7075 50.845 12.3825C51.145 12.0525 51.3725 11.6525 51.5275 11.1825C51.6875 10.7075 51.7675 10.1725 51.7675 9.5775ZM60.1811 10.2675C60.1811 10.0275 60.1461 9.8025 60.0761 9.5925C60.0111 9.3775 59.9111 9.19 59.7761 9.03C59.6411 8.87 59.4686 8.745 59.2586 8.655C59.0536 8.56 58.8136 8.5125 58.5386 8.5125C58.0036 8.5125 57.5811 8.665 57.2711 8.97C56.9661 9.275 56.7711 9.7075 56.6861 10.2675H60.1811ZM56.6486 11.385C56.6786 11.78 56.7486 12.1225 56.8586 12.4125C56.9686 12.6975 57.1136 12.935 57.2936 13.125C57.4736 13.31 57.6861 13.45 57.9311 13.545C58.1811 13.635 58.4561 13.68 58.7561 13.68C59.0561 13.68 59.3136 13.645 59.5286 13.575C59.7486 13.505 59.9386 13.4275 60.0986 13.3425C60.2636 13.2575 60.4061 13.18 60.5261 13.11C60.6511 13.04 60.7711 13.005 60.8861 13.005C61.0411 13.005 61.1561 13.0625 61.2311 13.1775L61.7636 13.8525C61.5586 14.0925 61.3286 14.295 61.0736 14.46C60.8186 14.62 60.5511 14.75 60.2711 14.85C59.9961 14.945 59.7136 15.0125 59.4236 15.0525C59.1386 15.0925 58.8611 15.1125 58.5911 15.1125C58.0561 15.1125 57.5586 15.025 57.0986 14.85C56.6386 14.67 56.2386 14.4075 55.8986 14.0625C55.5586 13.7125 55.2911 13.2825 55.0961 12.7725C54.9011 12.2575 54.8036 11.6625 54.8036 10.9875C54.8036 10.4625 54.8886 9.97 55.0586 9.51C55.2286 9.045 55.4711 8.6425 55.7861 8.3025C56.1061 7.9575 56.4936 7.685 56.9486 7.485C57.4086 7.285 57.9261 7.185 58.5011 7.185C58.9861 7.185 59.4336 7.2625 59.8436 7.4175C60.2536 7.5725 60.6061 7.8 60.9011 8.1C61.1961 8.395 61.4261 8.76 61.5911 9.195C61.7611 9.625 61.8461 10.1175 61.8461 10.6725C61.8461 10.9525 61.8161 11.1425 61.7561 11.2425C61.6961 11.3375 61.5811 11.385 61.4111 11.385H56.6486ZM67.9313 8.805C67.8813 8.885 67.8288 8.9425 67.7738 8.9775C67.7188 9.0075 67.6488 9.0225 67.5638 9.0225C67.4738 9.0225 67.3763 8.9975 67.2713 8.9475C67.1713 8.8975 67.0538 8.8425 66.9188 8.7825C66.7838 8.7175 66.6288 8.66 66.4538 8.61C66.2838 8.56 66.0813 8.535 65.8463 8.535C65.4813 8.535 65.1938 8.6125 64.9838 8.7675C64.7788 8.9225 64.6763 9.125 64.6763 9.375C64.6763 9.54 64.7288 9.68 64.8338 9.795C64.9438 9.905 65.0863 10.0025 65.2613 10.0875C65.4413 10.1725 65.6438 10.25 65.8688 10.32C66.0938 10.385 66.3213 10.4575 66.5513 10.5375C66.7863 10.6175 67.0163 10.71 67.2413 10.815C67.4663 10.915 67.6663 11.045 67.8413 11.205C68.0213 11.36 68.1638 11.5475 68.2688 11.7675C68.3788 11.9875 68.4338 12.2525 68.4338 12.5625C68.4338 12.9325 68.3663 13.275 68.2313 13.59C68.1013 13.9 67.9063 14.17 67.6463 14.4C67.3863 14.625 67.0638 14.8025 66.6788 14.9325C66.2988 15.0575 65.8588 15.12 65.3588 15.12C65.0938 15.12 64.8338 15.095 64.5788 15.045C64.3288 15 64.0863 14.935 63.8513 14.85C63.6213 14.765 63.4063 14.665 63.2063 14.55C63.0113 14.435 62.8388 14.31 62.6888 14.175L63.1163 13.47C63.1713 13.385 63.2363 13.32 63.3113 13.275C63.3863 13.23 63.4813 13.2075 63.5963 13.2075C63.7113 13.2075 63.8188 13.24 63.9188 13.305C64.0238 13.37 64.1438 13.44 64.2788 13.515C64.4138 13.59 64.5713 13.66 64.7513 13.725C64.9363 13.79 65.1688 13.8225 65.4488 13.8225C65.6688 13.8225 65.8563 13.7975 66.0113 13.7475C66.1713 13.6925 66.3013 13.6225 66.4013 13.5375C66.5063 13.4525 66.5813 13.355 66.6263 13.245C66.6763 13.13 66.7013 13.0125 66.7013 12.8925C66.7013 12.7125 66.6463 12.565 66.5363 12.45C66.4313 12.335 66.2888 12.235 66.1088 12.15C65.9338 12.065 65.7313 11.99 65.5013 11.925C65.2763 11.855 65.0438 11.78 64.8038 11.7C64.5688 11.62 64.3363 11.5275 64.1063 11.4225C63.8813 11.3125 63.6788 11.175 63.4988 11.01C63.3238 10.845 63.1813 10.6425 63.0713 10.4025C62.9663 10.1625 62.9138 9.8725 62.9138 9.5325C62.9138 9.2175 62.9763 8.9175 63.1013 8.6325C63.2263 8.3475 63.4088 8.1 63.6488 7.89C63.8938 7.675 64.1963 7.505 64.5563 7.38C64.9213 7.25 65.3413 7.185 65.8163 7.185C66.3463 7.185 66.8288 7.2725 67.2638 7.4475C67.6988 7.6225 68.0613 7.8525 68.3513 8.1375L67.9313 8.805ZM77.5906 15H75.7381V8.6925H72.1681V12.8625C72.1681 13.1025 72.2256 13.29 72.3406 13.425C72.4606 13.56 72.6231 13.6275 72.8281 13.6275C72.9431 13.6275 73.0381 13.615 73.1131 13.59C73.1931 13.56 73.2606 13.53 73.3156 13.5C73.3756 13.47 73.4281 13.4425 73.4731 13.4175C73.5181 13.3875 73.5631 13.3725 73.6081 13.3725C73.6631 13.3725 73.7081 13.3875 73.7431 13.4175C73.7781 13.4425 73.8156 13.4825 73.8556 13.5375L74.4106 14.4375C74.1406 14.6625 73.8306 14.8325 73.4806 14.9475C73.1306 15.0625 72.7681 15.12 72.3931 15.12C71.7231 15.12 71.2081 14.9325 70.8481 14.5575C70.4931 14.1775 70.3156 13.655 70.3156 12.99V8.6925H69.5281C69.4281 8.6925 69.3431 8.66 69.2731 8.595C69.2031 8.53 69.1681 8.4325 69.1681 8.3025V7.5675L70.4056 7.3575L70.7956 5.265C70.8206 5.165 70.8681 5.0875 70.9381 5.0325C71.0081 4.9775 71.0981 4.95 71.2081 4.95H72.1681V7.3725H77.5906V15ZM77.9131 5.0325C77.9131 5.1925 77.8806 5.345 77.8156 5.49C77.7506 5.63 77.6631 5.7525 77.5531 5.8575C77.4481 5.9625 77.3206 6.0475 77.1706 6.1125C77.0256 6.1725 76.8706 6.2025 76.7056 6.2025C76.5456 6.2025 76.3956 6.1725 76.2556 6.1125C76.1156 6.0475 75.9931 5.9625 75.8881 5.8575C75.7831 5.7525 75.6981 5.63 75.6331 5.49C75.5731 5.345 75.5431 5.1925 75.5431 5.0325C75.5431 4.8675 75.5731 4.715 75.6331 4.575C75.6981 4.43 75.7831 4.305 75.8881 4.2C75.9931 4.09 76.1156 4.005 76.2556 3.945C76.3956 3.88 76.5456 3.8475 76.7056 3.8475C76.8706 3.8475 77.0256 3.88 77.1706 3.945C77.3206 4.005 77.4481 4.09 77.5531 4.2C77.6631 4.305 77.7506 4.43 77.8156 4.575C77.8806 4.715 77.9131 4.8675 77.9131 5.0325ZM81.2139 8.25C81.3689 8.095 81.5314 7.9525 81.7014 7.8225C81.8764 7.6875 82.0589 7.575 82.2489 7.485C82.4439 7.39 82.6514 7.3175 82.8714 7.2675C83.0914 7.2125 83.3314 7.185 83.5914 7.185C84.0114 7.185 84.3839 7.2575 84.7089 7.4025C85.0339 7.5425 85.3039 7.7425 85.5189 8.0025C85.7389 8.2575 85.9039 8.565 86.0139 8.925C86.1289 9.28 86.1864 9.6725 86.1864 10.1025V15H84.3339V10.1025C84.3339 9.6325 84.2264 9.27 84.0114 9.015C83.7964 8.755 83.4689 8.625 83.0289 8.625C82.7089 8.625 82.4089 8.6975 82.1289 8.8425C81.8489 8.9875 81.5839 9.185 81.3339 9.435V15H79.4814V7.305H80.6139C80.8539 7.305 81.0114 7.4175 81.0864 7.6425L81.2139 8.25ZM94.7331 7.305L90.5406 17.115C90.4856 17.245 90.4131 17.3425 90.3231 17.4075C90.2381 17.4775 90.1056 17.5125 89.9256 17.5125H88.5456L89.9856 14.4225L86.8731 7.305H88.5006C88.6456 7.305 88.7581 7.34 88.8381 7.41C88.9231 7.48 88.9856 7.56 89.0256 7.65L90.6606 11.64C90.7156 11.775 90.7606 11.91 90.7956 12.045C90.8356 12.18 90.8731 12.3175 90.9081 12.4575C90.9531 12.3175 90.9981 12.18 91.0431 12.045C91.0881 11.905 91.1381 11.7675 91.1931 11.6325L92.7381 7.65C92.7781 7.55 92.8431 7.4675 92.9331 7.4025C93.0281 7.3375 93.1331 7.305 93.2481 7.305H94.7331ZM101.485 15.12C100.815 15.12 100.3 14.9325 99.9399 14.5575C99.5849 14.1775 99.4074 13.655 99.4074 12.99V8.6925H98.6199C98.5199 8.6925 98.4349 8.66 98.3649 8.595C98.2949 8.53 98.2599 8.4325 98.2599 8.3025V7.5675L99.4974 7.365L99.8874 5.265C99.9124 5.165 99.9599 5.0875 100.03 5.0325C100.1 4.9775 100.19 4.95 100.3 4.95H101.26V7.3725H103.315V8.6925H101.26V12.8625C101.26 13.1025 101.317 13.29 101.432 13.425C101.552 13.56 101.715 13.6275 101.92 13.6275C102.035 13.6275 102.13 13.615 102.205 13.59C102.285 13.56 102.352 13.53 102.407 13.5C102.467 13.47 102.52 13.4425 102.565 13.4175C102.61 13.3875 102.655 13.3725 102.7 13.3725C102.755 13.3725 102.8 13.3875 102.835 13.4175C102.87 13.4425 102.907 13.4825 102.947 13.5375L103.502 14.4375C103.232 14.6625 102.922 14.8325 102.572 14.9475C102.222 15.0625 101.86 15.12 101.485 15.12ZM106.248 8.64C106.488 8.18 106.773 7.82 107.103 7.56C107.433 7.295 107.823 7.1625 108.273 7.1625C108.628 7.1625 108.913 7.24 109.128 7.395L109.008 8.7825C108.983 8.8725 108.946 8.9375 108.896 8.9775C108.851 9.0125 108.788 9.03 108.708 9.03C108.633 9.03 108.521 9.0175 108.371 8.9925C108.226 8.9675 108.083 8.955 107.943 8.955C107.738 8.955 107.556 8.985 107.396 9.045C107.236 9.105 107.091 9.1925 106.961 9.3075C106.836 9.4175 106.723 9.5525 106.623 9.7125C106.528 9.8725 106.438 10.055 106.353 10.26V15H104.501V7.305H105.588C105.778 7.305 105.911 7.34 105.986 7.41C106.061 7.475 106.111 7.595 106.136 7.77L106.248 8.64ZM112.017 7.305V15H110.157V7.305H112.017ZM112.272 5.0625C112.272 5.2225 112.239 5.3725 112.174 5.5125C112.109 5.6525 112.022 5.775 111.912 5.88C111.807 5.985 111.682 6.07 111.537 6.135C111.392 6.195 111.237 6.225 111.072 6.225C110.912 6.225 110.759 6.195 110.614 6.135C110.474 6.07 110.352 5.985 110.247 5.88C110.142 5.775 110.057 5.6525 109.992 5.5125C109.932 5.3725 109.902 5.2225 109.902 5.0625C109.902 4.8975 109.932 4.7425 109.992 4.5975C110.057 4.4525 110.142 4.3275 110.247 4.2225C110.352 4.1175 110.474 4.035 110.614 3.975C110.759 3.91 110.912 3.8775 111.072 3.8775C111.237 3.8775 111.392 3.91 111.537 3.975C111.682 4.035 111.807 4.1175 111.912 4.2225C112.022 4.3275 112.109 4.4525 112.174 4.5975C112.239 4.7425 112.272 4.8975 112.272 5.0625ZM115.758 13.005C115.968 13.26 116.195 13.44 116.44 13.545C116.69 13.65 116.96 13.7025 117.25 13.7025C117.53 13.7025 117.783 13.65 118.008 13.545C118.233 13.44 118.423 13.28 118.578 13.065C118.738 12.85 118.86 12.58 118.945 12.255C119.03 11.925 119.073 11.5375 119.073 11.0925C119.073 10.6425 119.035 10.2625 118.96 9.9525C118.89 9.6375 118.788 9.3825 118.653 9.1875C118.518 8.9925 118.353 8.85 118.158 8.76C117.968 8.67 117.75 8.625 117.505 8.625C117.12 8.625 116.793 8.7075 116.523 8.8725C116.253 9.0325 115.998 9.26 115.758 9.555V13.005ZM115.66 8.355C115.975 8 116.333 7.7125 116.733 7.4925C117.133 7.2725 117.603 7.1625 118.143 7.1625C118.563 7.1625 118.945 7.25 119.29 7.425C119.64 7.6 119.94 7.855 120.19 8.19C120.445 8.52 120.64 8.93 120.775 9.42C120.915 9.905 120.985 10.4625 120.985 11.0925C120.985 11.6675 120.908 12.2 120.753 12.69C120.598 13.18 120.375 13.605 120.085 13.965C119.8 14.325 119.453 14.6075 119.043 14.8125C118.638 15.0125 118.183 15.1125 117.678 15.1125C117.248 15.1125 116.88 15.0475 116.575 14.9175C116.27 14.7825 115.998 14.5975 115.758 14.3625V17.5125H113.905V7.305H115.038C115.278 7.305 115.435 7.4175 115.51 7.6425L115.66 8.355ZM127.126 8.805C127.076 8.885 127.023 8.9425 126.968 8.9775C126.913 9.0075 126.843 9.0225 126.758 9.0225C126.668 9.0225 126.571 8.9975 126.466 8.9475C126.366 8.8975 126.248 8.8425 126.113 8.7825C125.978 8.7175 125.823 8.66 125.648 8.61C125.478 8.56 125.276 8.535 125.041 8.535C124.676 8.535 124.388 8.6125 124.178 8.7675C123.973 8.9225 123.871 9.125 123.871 9.375C123.871 9.54 123.923 9.68 124.028 9.795C124.138 9.905 124.281 10.0025 124.456 10.0875C124.636 10.1725 124.838 10.25 125.063 10.32C125.288 10.385 125.516 10.4575 125.746 10.5375C125.981 10.6175 126.211 10.71 126.436 10.815C126.661 10.915 126.861 11.045 127.036 11.205C127.216 11.36 127.358 11.5475 127.463 11.7675C127.573 11.9875 127.628 12.2525 127.628 12.5625C127.628 12.9325 127.561 13.275 127.426 13.59C127.296 13.9 127.101 14.17 126.841 14.4C126.581 14.625 126.258 14.8025 125.873 14.9325C125.493 15.0575 125.053 15.12 124.553 15.12C124.288 15.12 124.028 15.095 123.773 15.045C123.523 15 123.281 14.935 123.046 14.85C122.816 14.765 122.601 14.665 122.401 14.55C122.206 14.435 122.033 14.31 121.883 14.175L122.311 13.47C122.366 13.385 122.431 13.32 122.506 13.275C122.581 13.23 122.676 13.2075 122.791 13.2075C122.906 13.2075 123.013 13.24 123.113 13.305C123.218 13.37 123.338 13.44 123.473 13.515C123.608 13.59 123.766 13.66 123.946 13.725C124.131 13.79 124.363 13.8225 124.643 13.8225C124.863 13.8225 125.051 13.7975 125.206 13.7475C125.366 13.6925 125.496 13.6225 125.596 13.5375C125.701 13.4525 125.776 13.355 125.821 13.245C125.871 13.13 125.896 13.0125 125.896 12.8925C125.896 12.7125 125.841 12.565 125.731 12.45C125.626 12.335 125.483 12.235 125.303 12.15C125.128 12.065 124.926 11.99 124.696 11.925C124.471 11.855 124.238 11.78 123.998 11.7C123.763 11.62 123.531 11.5275 123.301 11.4225C123.076 11.3125 122.873 11.175 122.693 11.01C122.518 10.845 122.376 10.6425 122.266 10.4025C122.161 10.1625 122.108 9.8725 122.108 9.5325C122.108 9.2175 122.171 8.9175 122.296 8.6325C122.421 8.3475 122.603 8.1 122.843 7.89C123.088 7.675 123.391 7.505 123.751 7.38C124.116 7.25 124.536 7.185 125.011 7.185C125.541 7.185 126.023 7.2725 126.458 7.4475C126.893 7.6225 127.256 7.8525 127.546 8.1375L127.126 8.805Z" fill="#191847"/>
<mask id="mask0_28_27" style="mask-type:luminance" maskUnits="userSpaceOnUse" x="0" y="0" width="39" height="22">
<path d="M39 0H0V22H39V0Z" fill="white"/>
</mask>
<g mask="url(#mask0_28_27)">
<path d="M13.5089 16.0106L10.4858 19.039C9.48522 20.0293 8.13405 20.5829 6.72742 20.5787C5.32079 20.5745 3.97296 20.0128 2.9783 19.0164C1.98365 18.02 1.42297 16.6698 1.41873 15.2606C1.41448 13.8515 1.96702 12.4979 2.95564 11.4955L7.47101 6.97212C7.46866 6.89242 7.46706 6.81259 7.46706 6.73252C7.46662 6.05888 7.55294 5.38799 7.7239 4.73648L1.96681 10.5038C0.713248 11.7686 0.0111616 13.4796 0.0143387 15.2619C0.0175159 17.0442 0.725698 18.7526 1.98376 20.0128C3.24182 21.2731 4.9472 21.9825 6.72636 21.9856C8.50551 21.9888 10.2134 21.2855 11.4759 20.0297L14.4989 17.0013L13.5089 16.0106Z" fill="url(#paint0_linear_28_27)"/>
<path d="M23.7598 22.0001C22.8768 22.0016 22.0022 21.8283 21.1864 21.4902C20.3705 21.1522 19.6292 20.6559 19.0053 20.0301L10.4858 11.4954C9.22776 10.2316 8.52185 8.51921 8.52311 6.73438C8.52437 4.94955 9.2327 3.23819 10.4926 1.97615C11.7524 0.714114 13.4607 0.00458427 15.2425 0.00338896C17.0241 0.00219367 18.7334 0.709432 19.9949 1.96978L28.5144 10.5044C29.4552 11.446 30.096 12.646 30.3557 13.9527C30.6155 15.2593 30.4823 16.6137 29.9733 17.8446C29.4642 19.0754 28.6021 20.1271 27.4961 20.867C26.39 21.6067 25.0897 22.001 23.7598 22.0001ZM19.9949 19.0391C20.996 20.0275 22.3464 20.5792 23.752 20.5741C25.1574 20.5691 26.5039 20.0074 27.4978 19.0118C28.4916 18.0162 29.0522 16.6673 29.0573 15.2594C29.0623 13.8514 28.5116 12.4984 27.525 11.4956L19.0055 2.96099C18.5123 2.45977 17.9251 2.06125 17.2775 1.7884C16.63 1.51556 15.9349 1.37378 15.2325 1.37123C14.5299 1.36866 13.8338 1.5054 13.1844 1.77353C12.5349 2.04166 11.9447 2.4359 11.448 2.93353C10.9512 3.43115 10.5577 4.02233 10.29 4.673C10.0224 5.32366 9.8859 6.02095 9.88846 6.72469C9.891 7.42844 10.0325 8.12473 10.3049 8.77343C10.5773 9.42213 10.9751 10.0104 11.4754 10.5044L19.9949 19.0391Z" fill="url(#paint1_linear_28_27)"/>
<path d="M27.5249 1.96951L24.5019 4.99785L25.4913 5.98907L28.5143 2.96073C29.5154 1.97237 30.8658 1.42059 32.2714 1.42569C33.6768 1.4308 35.0233 1.99238 36.0172 2.988C37.011 3.98361 37.5716 5.33247 37.5767 6.74047C37.5817 8.14846 37.031 9.50137 36.0444 10.5042L31.5255 15.031C31.5484 15.7857 31.4622 16.5398 31.2697 17.2698L37.0338 11.4954C38.2948 10.2322 39.0032 8.51889 39.0032 6.73245C39.0032 4.946 38.2948 3.23273 37.0338 1.96951C35.7728 0.706308 34.0626 -0.00335693 32.2793 -0.00335693C30.4961 -0.00335693 28.7859 0.706308 27.5249 1.96951Z" fill="url(#paint2_linear_28_27)"/>
</g>
<defs>
<linearGradient id="paint0_linear_28_27" x1="-0.391239" y1="15.4654" x2="40.8413" y2="7.8576" gradientUnits="userSpaceOnUse">
<stop stop-color="#E7267A"/>
<stop offset="0.502" stop-color="#64328A"/>
<stop offset="1" stop-color="#2B4B9B"/>
</linearGradient>
<linearGradient id="paint1_linear_28_27" x1="-0.21779" y1="16.171" x2="40.5081" y2="5.53403" gradientUnits="userSpaceOnUse">
<stop offset="0.502" stop-color="#2B024A"/>
</linearGradient>
<linearGradient id="paint2_linear_28_27" x1="-0.0633302" y1="16.8552" x2="41.2319" y2="9.24021" gradientUnits="userSpaceOnUse">
<stop stop-color="#64328A"/>
<stop offset="0.502" stop-color="#64328A"/>
<stop offset="1" stop-color="#2B4B9B"/>
</linearGradient>
</defs>
</svg>
